<svg width="24" height="24" viewBox="0 0 24 24" fill="none" xmlns="http://www.w3.org/2000/svg">
<g clip-path="url(#clip0_4_2)">
<path d="M17 9V5C17 4.46957 16.7893 3.96086 16.4142 3.58579C16.0391 3.21071 15.5304 3 15 3H9C8.46957 3 7.96086 3.21071 7.58579 3.58579C7.21071 3.96086 7 4.46957 7 5V9" fill="#D9D9D9"/>
<path d="M17 9V5C17 4.46957 16.7893 3.96086 16.4142 3.58579C16.0391 3.21071 15.5304 3 15 3H9C8.46957 3 7.96086 3.21071 7.58579 3.58579C7.21071 3.96086 7 4.46957 7 5V9" stroke="black" stroke-width="2" stroke-linecap="round" stroke-linejoin="round"/>
<path d="M19 8C19.7957 8 20.5585 8.3163 21.1211 8.87891C21.6837 9.44151 22 10.2043 22 11V15C22 15.7957 21.6837 16.5585 21.1211 17.1211C20.5585 17.6837 19.7957 18 19 18H18V15C18 14.2043 17.6837 13.4415 17.1211 12.8789C16.5585 12.3163 15.7957 12 15 12H9C8.20435 12 7.44152 12.3163 6.87891 12.8789C6.3163 13.4415 6 14.2044 6 15V18H5C4.20435 18 3.44152 17.6837 2.87891 17.1211C2.3163 16.5585 2 15.7956 2 15V11C2 10.2044 2.3163 9.44152 2.87891 8.87891C3.44152 8.3163 4.20435 8 5 8H19Z" fill="black"/>
<path d="M7 15C7 14.4696 7.21071 13.9609 7.58579 13.5858C7.96086 13.2107 8.46957 13 9 13H15C15.5304 13 16.0391 13.2107 16.4142 13.5858C16.7893 13.9609 17 14.4696 17 15V19C17 19.5304 16.7893 20.0391 16.4142 20.4142C16.0391 20.7893 15.5304 21 15 21H9C8.46957 21 7.96086 20.7893 7.58579 20.4142C7.21071 20.0391 7 19.5304 7 19V15Z" fill="#D9D9D9" stroke="black" stroke-width="2" stroke-linecap="round" stroke-linejoin="round"/>
</g>
<defs>
<clipPath id="clip0_4_2">
<rect width="24" height="24" fill="white"/>
</clipPath>
</defs>
</svg>
